HIERARCHY
ROOT Hips
{
 OFFSET 0.000000 0.000000 0.000000
 CHANNELS 6 Xposition Yposition Zposition Yrotation Xrotation Zrotation
 JOINT Chest
 {
  OFFSET 0.000000 11.395451 -0.039534
  CHANNELS 3 Yrotation Xrotation Zrotation
  JOINT Chest2
  {
   OFFSET 0.000000 9.398669 0.071813
   CHANNELS 3 Yrotation Xrotation Zrotation
   JOINT Chest3
   {
    OFFSET 0.000000 8.489801 0.000000
    CHANNELS 3 Yrotation Xrotation Zrotation
    JOINT Chest4
    {
     OFFSET 0.000000 8.489801 0.000000
     CHANNELS 3 Yrotation Xrotation Zrotation
     JOINT Neck
     {
      OFFSET 0.000000 12.404889 0.000000
      CHANNELS 3 Yrotation Xrotation Zrotation
      JOINT Head
      {
       OFFSET 0.000000 8.903270 0.092239
       CHANNELS 3 Yrotation Xrotation Zrotation
       End Site
       {
        OFFSET 0.000000 17.592497 0.007158
       }
      }
     }
     JOINT RightCollar
     {
      OFFSET -3.196775 6.966722 0.000000
      CHANNELS 3 Yrotation Xrotation Zrotation
      JOINT RightShoulder
      {
       OFFSET -15.955896 0.000000 0.000000
       CHANNELS 3 Yrotation Xrotation Zrotation
       JOINT RightElbow
       {
        OFFSET -24.792472 0.000000 0.000000
        CHANNELS 3 Yrotation Xrotation Zrotation
        JOINT RightWrist
        {
         OFFSET -20.900115 0.000000 0.025002
         CHANNELS 3 Yrotation Xrotation Zrotation
         End Site
         {
          OFFSET -16.056692 0.000000 0.000000
         }
        }
       }
      }
     }
     JOINT LeftCollar
     {
      OFFSET 3.196775 6.966722 0.000000
      CHANNELS 3 Yrotation Xrotation Zrotation
      JOINT LeftShoulder
      {
       OFFSET 15.955896 0.000000 0.000000
       CHANNELS 3 Yrotation Xrotation Zrotation
       JOINT LeftElbow
       {
        OFFSET 24.792472 0.000000 0.000000
        CHANNELS 3 Yrotation Xrotation Zrotation
        JOINT LeftWrist
        {
         OFFSET 20.900115 0.000000 0.025002
         CHANNELS 3 Yrotation Xrotation Zrotation
         End Site
         {
          OFFSET 16.056692 0.000000 0.000000
         }
        }
       }
      }
     }
    }
   }
  }
 }
 JOINT RightHip
 {
  OFFSET -9.568995 0.193718 0.019767
  CHANNELS 3 Yrotation Xrotation Zrotation
  JOINT RightKnee
  {
   OFFSET 0.000000 -56.649296 0.015402
   CHANNELS 3 Yrotation Xrotation Zrotation
   JOINT RightAnkle
   {
    OFFSET 0.000000 -41.365147 0.021264
    CHANNELS 3 Yrotation Xrotation Zrotation
    JOINT RightToe
    {
     OFFSET 0.000000 -7.465940 17.672538
     CHANNELS 3 Yrotation Xrotation Zrotation
     End Site
     {
      OFFSET 0.000000 -1.736315 7.837145
     }
    }
   }
  }
 }
 JOINT LeftHip
 {
  OFFSET 9.568995 0.193718 0.019767
  CHANNELS 3 Yrotation Xrotation Zrotation
  JOINT LeftKnee
  {
   OFFSET 0.000000 -56.649296 0.015402
   CHANNELS 3 Yrotation Xrotation Zrotation
   JOINT LeftAnkle
   {
    OFFSET 0.000000 -41.365147 0.021264
    CHANNELS 3 Yrotation Xrotation Zrotation
    JOINT LeftToe
    {
     OFFSET 0.000000 -7.465940 17.672538
     CHANNELS 3 Yrotation Xrotation Zrotation
     End Site
     {
      OFFSET 0.000000 -1.736315 7.837145
     }
    }
   }
  }
 }
}
MOTION
Frames: 15
Frame Time: 0.016667
0.029394 45.347731 36.112164 4.900689 28.467717 2.630572 0.098855 10.875831 2.228729 -0.008720 4.834098 0.983614 -0.008721 4.834067 0.983612 -0.014335 3.625524 0.737338 -6.017510 27.973882 3.461655 -11.392022 16.290412 7.351938 4.416362 10.725475 4.136732 11.127323 -28.408703 58.086460 39.370676 -9.829613 4.805239 1.001083 -0.919593 -2.731128 -1.740414 8.449436 -6.291876 -7.193358 -20.403161 -65.065486 -44.702331 -24.534877 -14.831876 -4.199418 3.219892 1.448740 -6.690173 -51.026107 1.018743 7.792835 33.921297 1.551183 4.394740 -13.666924 -4.527616 0.000000 0.000000 0.000000 -3.617674 -54.588371 3.691636 -5.086996 29.680410 0.376278 0.472467 -2.746578 -7.934759 0.000000 0.000000 0.000000
0.178169 44.945656 35.591261 4.241495 29.036164 2.178350 0.070285 10.913583 2.331271 -0.023963 4.850747 1.029603 -0.023961 4.850710 1.029595 -0.026150 3.637976 0.771919 -6.306382 27.975344 3.544006 -11.921263 16.334842 7.552991 4.224686 10.808900 4.064262 10.659551 -28.660892 57.913647 41.082492 -10.072295 4.987001 0.953948 -0.685897 -2.688763 -1.645320 8.301111 -6.198756 -6.810370 -20.057324 -64.769442 -45.221621 -24.847683 -15.327545 -4.196541 3.508700 1.355411 -6.060434 -52.339452 1.170923 8.588228 34.913777 1.964438 3.703127 -14.067921 -4.520607 0.000000 0.000000 0.000000 -2.844774 -54.780728 3.697562 -4.458236 29.080522 0.499540 -0.099795 -3.565389 -7.747988 0.000000 0.000000 0.000000
0.345778 44.554573 35.064213 3.709835 29.660446 1.780054 -0.024137 10.948585 2.414847 -0.067897 4.865866 1.068782 -0.067897 4.865866 1.068782 -0.059420 3.649294 0.801645 -6.557983 27.942845 3.621030 -12.385796 16.312547 7.740798 4.014786 10.636756 3.993689 10.144805 -28.745289 57.852735 42.698217 -10.036319 5.117886 0.944444 -0.614894 -2.632653 -1.587401 8.143071 -6.127685 -6.465134 -19.764673 -64.395809 -45.793836 -24.910405 -15.672201 -4.255813 3.724829 1.287314 -5.556078 -53.684356 1.286375 8.784759 35.830971 2.094680 3.476853 -14.364889 -4.441110 0.000000 0.000000 0.000000 -0.757637 -55.303659 2.374345 -4.855874 28.686924 0.673960 -0.388225 -4.124106 -7.547252 0.000000 0.000000 0.000000
0.565480 44.206597 34.537509 3.471169 30.369060 1.537084 -0.277231 10.982751 2.478316 -0.181545 4.879755 1.102859 -0.181546 4.879816 1.102875 -0.144902 3.659602 0.828122 -6.763357 27.867195 3.693852 -12.770232 16.205466 7.916635 3.741396 9.906033 3.931951 9.586117 -28.448442 57.928578 44.159805 -9.538230 5.242575 0.986364 -0.896559 -2.514863 -1.587657 7.977760 -6.110000 -6.106448 -19.545341 -63.965528 -46.463559 -24.593153 -15.795946 -4.429545 3.763086 1.280906 -5.205879 -55.040918 1.196706 7.425423 36.594185 1.467707 4.399393 -14.469525 -4.267227 0.000000 0.000000 0.000000 4.652937 -56.190069 -2.269694 -7.543961 28.531557 1.015362 0.041091 -4.187065 -7.266888 0.000000 0.000000 0.000000
0.804014 43.869612 34.004660 3.365216 31.137853 1.355009 -0.595784 11.014047 2.527013 -0.323770 4.891913 1.131981 -0.323768 4.891978 1.131997 -0.251757 3.668456 0.851090 -6.930581 27.758632 3.762794 -13.088265 16.034079 8.081322 3.460554 8.919723 3.896069 8.990520 -27.973977 58.084522 45.547378 -8.759697 5.324324 1.055463 -1.343453 -2.391893 -1.625669 7.801060 -6.111613 -5.779511 -19.377144 -63.460092 -47.179472 -24.023478 -15.767053 -4.665477 3.729760 1.304678 -4.975736 -56.426774 1.066121 5.414294 37.270431 0.468867 5.789604 -14.474135 -4.024599 0.000000 0.000000 0.000000 11.729128 -56.998938 -8.649548 -11.269951 28.618340 1.386843 0.759983 -3.996606 -6.960924 0.000000 0.000000 0.000000
0.967953 43.506701 33.409540 3.186324 31.934355 1.144159 -0.804103 11.055223 2.551235 -0.416706 4.908986 1.147678 -0.416706 4.908986 1.147678 -0.321578 3.680975 0.863586 -7.106344 27.611983 3.842006 -13.426422 15.794905 8.269952 3.306450 8.433528 3.846404 8.470453 -27.879346 58.243381 46.844405 -8.063262 5.078686 1.114832 -1.624171 -2.397617 -1.697703 7.709992 -6.038652 -5.715619 -19.370364 -62.826929 -47.952146 -23.375905 -15.507141 -4.846422 3.783052 1.340086 -5.051485 -57.911633 1.343003 4.639512 38.007117 -0.065618 6.318651 -14.473029 -3.735696 0.000000 0.000000 0.000000 15.418765 -58.121742 -12.001183 -12.885789 29.135682 1.449582 1.180777 -3.883556 -6.738816 0.000000 0.000000 0.000000
0.984485 43.084249 32.693638 2.849902 32.761909 0.859472 -0.806076 11.113605 2.536641 -0.417539 4.934912 1.141309 -0.417544 4.934877 1.141304 -0.322206 3.700369 0.858825 -7.325738 27.392485 3.962650 -13.856536 15.433272 8.548976 3.370061 8.987625 3.726148 8.050201 -28.575743 58.448576 48.089929 -7.716760 4.250952 1.168615 -1.593841 -2.590830 -1.835391 7.803269 -5.821219 -6.175494 -19.642463 -61.946343 -48.713935 -22.870244 -14.933442 -4.887433 3.967650 1.360220 -5.854219 -59.582349 2.579492 6.683952 38.957533 0.606370 4.938338 -14.524471 -3.383793 0.000000 0.000000 0.000000 11.258294 -60.432032 -8.077299 -9.988698 30.348919 0.988979 0.933596 -3.989212 -6.678264 0.000000 0.000000 0.000000
0.926418 42.635872 31.915466 2.434759 33.615568 0.538881 -0.700353 11.180316 2.491315 -0.370032 4.965222 1.118760 -0.370036 4.965205 1.118759 -0.286467 3.723230 0.841556 -7.553436 27.136453 4.095779 -14.307785 15.009276 8.857053 3.546271 10.043270 3.562701 7.692248 -29.650372 58.701260 49.226260 -7.420774 3.072761 1.222122 -1.395231 -2.907451 -2.001722 7.984990 -5.530278 -6.901003 -20.065173 -60.909628 -49.502235 -22.278220 -14.138026 -4.873189 4.237278 1.385996 -7.142421 -61.328784 4.413668 10.079187 39.950462 1.933902 2.695633 -14.556533 -2.980981 0.000000 0.000000 0.000000 1.978782 -62.885574 0.743414 -4.914084 32.015805 0.392097 0.387989 -4.164030 -6.704540 0.000000 0.000000 0.000000
0.918759 42.225499 31.194450 1.977875 34.449615 0.213491 -0.603473 11.243553 2.437723 -0.326208 4.993936 1.092738 -0.326208 4.993936 1.092738 -0.253451 3.744885 0.821706 -7.731792 26.943440 4.162482 -14.653757 14.686609 9.031883 3.669666 10.737447 3.420482 7.409248 -30.429558 58.878647 50.071524 -6.687581 1.984051 1.244708 -1.126339 -3.292926 -2.094796 8.060143 -5.286970 -7.343009 -20.395306 -60.002431 -50.481598 -21.103476 -13.312895 -4.937349 4.612634 1.471284 -7.981542 -62.958090 5.790583 12.061152 40.753045 2.693080 1.406425 -14.482322 -2.599721 0.000000 0.000000 0.000000 -4.756375 -64.600438 7.329699 -1.647170 33.420331 0.117329 0.066965 -4.305765 -6.716972 0.000000 0.000000 0.000000
1.026253 41.894768 30.597838 1.483959 35.246860 -0.105390 -0.560716 11.297284 2.381811 -0.306208 5.018114 1.066984 -0.306208 5.018117 1.066983 -0.238291 3.763070 0.802244 -7.837523 26.881393 4.111972 -14.836354 14.578552 8.970482 3.670609 10.636632 3.326680 7.247442 -30.587004 58.898987 50.440866 -5.490310 1.177115 1.188873 -0.668241 -3.812912 -2.063942 7.910149 -5.159561 -7.256549 -20.552446 -59.369203 -51.717395 -18.909129 -12.523890 -5.164626 5.172021 1.649212 -7.335463 -64.407618 5.654153 10.774687 41.274785 1.961467 2.129965 -14.238008 -2.258418 0.000000 0.000000 0.000000 -2.998075 -66.130410 5.939118 -2.455941 34.133354 0.266514 0.253550 -4.373055 -6.680494 0.000000 0.000000 0.000000
1.184154 41.602040 30.058382 0.947882 36.024070 -0.430231 -0.526873 11.347505 2.318652 -0.289942 5.040684 1.038240 -0.289943 5.040688 1.038239 -0.225901 3.780040 0.780573 -7.899261 26.879182 3.987710 -14.920853 14.563977 8.762820 3.625255 10.174232 3.264079 7.167191 -30.451997 58.818844 50.515038 -3.865382 0.443161 1.088097 -0.144753 -4.405178 -1.965739 7.651339 -5.081912 -6.887500 -20.635134 -58.890503 -53.122723 -16.134718 -11.755856 -5.456549 5.837342 1.900629 -5.936324 -65.762427 4.741958 7.959751 41.615777 0.472947 3.807650 -13.902339 -1.936195 0.000000 0.000000 0.000000 3.438967 -67.498896 0.069184 -5.147559 34.556556 0.562826 0.666262 -4.409454 -6.633701 0.000000 0.000000 0.000000
1.323224 41.286328 29.493757 0.394274 36.787179 -0.762765 -0.481538 11.400965 2.256764 -0.268626 5.064727 1.009768 -0.268626 5.064727 1.009768 -0.209727 3.798115 0.759064 -7.936305 26.826834 3.851949 -14.962929 14.451794 8.534985 3.587050 9.787458 3.224991 7.053072 -30.334563 58.720071 50.649313 -1.430594 -0.377414 1.029627 -0.013152 -4.816169 -1.863519 7.440328 -4.975065 -6.416477 -20.680752 -58.481427 -54.656727 -13.602504 -11.054144 -5.672155 6.395763 2.194985 -5.562086 -67.103644 4.755397 6.169528 41.965319 -0.633464 5.080600 -13.614610 -1.656611 0.000000 0.000000 0.000000 8.627166 -68.745101 -4.648904 -7.072766 35.114009 0.738905 0.984048 -4.448110 -6.595802 0.000000 0.000000 0.000000
1.423563 40.921715 28.867145 -0.198854 37.546666 -1.114121 -0.405739 11.456965 2.197220 -0.233900 5.090020 0.981563 -0.233901 5.090011 0.981560 -0.183506 3.817141 0.737636 -7.956443 26.667496 3.714230 -14.982554 14.139769 8.312440 3.566485 9.634644 3.209078 6.882323 -30.353796 58.603945 50.901993 2.490633 -1.436657 1.065202 -0.694503 -4.870148 -1.781607 7.350626 -4.798959 -5.874090 -20.706696 -58.152733 -56.373116 -11.560027 -10.395197 -5.775295 6.714640 2.555420 -7.637011 -68.441366 7.073305 6.724100 42.426674 -0.776733 5.350740 -13.417942 -1.435611 0.000000 0.000000 0.000000 9.307557 -70.271092 -5.022826 -7.034892 35.987020 0.694037 1.052188 -4.509795 -6.566706 0.000000 0.000000 0.000000
1.505074 40.534118 28.215365 -0.810510 38.291619 -1.474333 -0.318535 11.516296 2.138201 -0.194150 5.116840 0.953293 -0.194152 5.116830 0.953288 -0.153520 3.837326 0.716117 -7.952009 26.458095 3.565230 -14.959177 13.730444 8.071135 3.552483 9.557976 3.212907 6.674817 -30.391861 58.474168 51.147782 7.215773 -2.622624 1.140797 -1.763257 -4.738687 -1.693580 7.309148 -4.594521 -5.228450 -20.695167 -57.899035 -58.242541 -9.764005 -9.777075 -5.801201 6.929495 2.946580 -11.284394 -69.681865 10.890794 8.350099 42.931799 -0.461758 5.216095 -13.265976 -1.262836 0.000000 0.000000 0.000000 7.783534 -71.921779 -3.242528 -6.207398 36.978275 0.574780 1.025326 -4.575122 -6.546926 0.000000 0.000000 0.000000
1.558229 40.140300 27.566551 -1.348594 38.997103 -1.809610 -0.256163 11.588094 2.084260 -0.165547 5.149085 0.927876 -0.165547 5.149085 0.927876 -0.131913 3.861573 0.696836 -7.916486 26.260560 3.441105 -14.883958 13.342804 7.866221 3.562819 9.520408 3.216554 6.378382 -30.401447 58.423257 51.514400 11.093101 -3.658367 1.199588 -2.402450 -4.685080 -1.586079 7.253000 -4.403910 -4.563186 -20.629195 -57.607583 -60.112270 -8.299332 -9.236395 -5.734214 7.228414 3.233926 -14.841156 -70.846295 14.643311 9.707540 43.489963 -0.176554 5.113178 -13.161989 -1.129339 0.000000 0.000000 0.000000 6.009172 -73.488661 -1.255178 -5.491015 37.909191 0.490057 1.046810 -4.620164 -6.558607 0.000000 0.000000 0.000000
